<svg xmlns="http://www.w3.org/2000/svg" viewBox="0 0 920 420" role="img" aria-labelledby="title desc">
  <title id="title">Trattoria Popolare</title>
  <desc id="desc">Logo bianco in stile disegnato a mano della Trattoria Popolare</desc>
  <g fill="none" stroke="#fff7f1" stroke-width="18" stroke-linecap="round" stroke-linejoin="round">
    <path d="M95 178 C145 175 186 145 212 112"/>
    <path d="M340 36 C385 88 372 157 331 197"/>
    <path d="M203 110 C218 87 244 105 230 130 C217 153 193 132 203 110Z"/>
    <path d="M311 118 C329 94 356 116 339 139 C322 162 296 140 311 118Z"/>
    <path d="M250 54 C300 50 330 58 332 92 C334 124 298 136 259 129 C222 122 213 61 250 54Z"/>
    <path d="M276 131 L276 166"/>
    <path d="M230 169 L333 169 L371 300 C321 324 250 323 194 297Z"/>
    <path d="M267 223 C235 244 298 256 263 282"/>
    <path d="M250 328 C222 355 286 369 253 397"/>
  </g>
  <g fill="#fff7f1" font-family="Arial Rounded MT Bold, Arial, Helvetica, sans-serif" font-weight="900">
    <text x="410" y="170" font-size="82" letter-spacing="2">TRATTORIA</text>
    <text x="410" y="270" font-size="82" letter-spacing="2">POPOLARE</text>
  </g>
</svg>
