<?xml version="1.0" encoding="utf-8"?>
<!-- Generator: Adobe Illustrator 27.0.0, SVG Export Plug-In . SVG Version: 6.00 Build 0)  -->
<svg version="1.1" id="Livello_2_00000030446808796963627640000014628477120832427435_"
	 xmlns="http://www.w3.org/2000/svg" xmlns:xlink="http://www.w3.org/1999/xlink" x="0px" y="0px" viewBox="0 0 795.5 523.4"
	 style="enable-background:new 0 0 795.5 523.4;" xml:space="preserve">
<style type="text/css">
	.st0{fill:#D7242B;}
</style>
<path d="M305.1,224.6c-9.6,0-19.4-5.3-19.4-17.1c0-8.8,6-17.7,19.4-17.8c0.1,0,0.1,0,0.2,0c9.8,0,16.2,6.4,19.4,10.6
	c28.3-29.4,35.6-57.4,36.8-76.1c2.9-48.4-6.8-76.4-37.3-106.9c-2.3-2.3-2.3-6.1,0-8.5c2.3-2.3,6.1-2.3,8.5,0
	c32.9,32.9,43.9,64.3,40.8,116.1c-1.3,21.5-10,54.2-43.9,87.5c-0.4,0.3-0.6,0.6-0.9,0.9C321.3,220.7,313.1,224.6,305.1,224.6
	L305.1,224.6z M305.3,201.7C305.3,201.7,305.2,201.7,305.3,201.7c-5.1,0-7.6,1.9-7.6,5.8c0,1.3,0,5.1,7.4,5.1c4,0,7.7-1.8,10.7-4
	C314.5,206.5,310.8,201.7,305.3,201.7L305.3,201.7z"/>
<path d="M57.8,276c-29.8,0-46.9-10.4-47.9-11c-2.8-1.8-3.7-5.4-1.9-8.3c1.8-2.8,5.4-3.7,8.2-1.9c0.5,0.3,30.8,18.1,80.9,3.1
	c20.2-6.1,49.5-24.1,66-40.1c-7.1-2.9-12.9-8.1-15.3-14.2c-2.4-5.9-1.4-11.9,2.6-17c3.9-4.9,9.1-7.5,14.6-7.3
	c6.2,0.2,12.2,3.7,16.4,9.6c6.8,9.5,4.9,21.3-5.2,32.5c-16.8,18.7-51.4,40.7-75.7,47.9C84.4,274.2,70,276,57.8,276L57.8,276z
	 M164.6,191.3c-1.7,0-3.3,0.9-4.8,2.8c-1.3,1.7-1.6,3.2-0.9,5c1.6,3.9,6.9,7.5,12.5,8.7c2.1-3.8,2.9-8.1,0.2-11.9
	C169.6,193.1,167,191.4,164.6,191.3C164.7,191.3,164.6,191.3,164.6,191.3L164.6,191.3z"/>
<path d="M149.4,516.3c-2.2,0-4.3-1.2-5.4-3.3c-1.5-3-0.3-6.6,2.6-8.1c3.4-1.7,12.9-8,12.9-14.2c0-2.4-1.5-3.7-5.6-6.6
	c-4.5-3.3-10.6-7.7-10.6-16.6c0-7,4-13,11.3-16.9c4.8-2.5,9.4-3.4,9.9-3.5c3.3-0.6,6.4,1.6,6.9,4.9s-1.6,6.4-4.9,7
	c-0.1,0-11.2,2.2-11.2,8.5c0,2.5,1.6,3.9,5.7,6.9c4.4,3.2,10.5,7.6,10.5,16.3c0,14.6-17.5,23.9-19.5,24.9
	C151.3,516.1,150.3,516.3,149.4,516.3L149.4,516.3z"/>
<path d="M237.7,217.4c-2.9,0-5.5-2.1-5.9-5.1c-0.5-3.4-2.3-18.1,1.2-28.6c-14.2-1.7-26.2-6.7-34.1-14.8
	c-8.2-8.3-11.8-19.5-10.4-32.4c1.5-13.6,3.2-23.6,12.8-29.3c7.9-4.7,20-5.7,46.3-4c28.8,1.9,42.8,6,50,14.4
	c6.5,7.6,6.1,17.8,5.3,26.7c-3.4,36.7-30,38.3-47.5,39.4c-0.5,0-1.1,0.1-1.6,0.1c-1.7,0.2-3.3,0.3-4.9,0.4c-0.8,0.1-1.6,0.1-2.3,0.2
	c-0.2,0-0.4,0.1-0.9,0.6c-3.2,4.2-3,17.7-1.9,25.5c0.5,3.3-1.8,6.3-5.1,6.8C238.3,217.4,238,217.5,237.7,217.4L237.7,217.4z
	 M227.4,114.4c-10.3,0-16.5,1-20,3.1c-4.4,2.6-5.7,8.1-7,20.3c-1,9.3,1.4,16.9,7.1,22.7c8.2,8.3,23.1,12.5,40.6,11.7
	c2.1-0.2,4.3-0.3,6.6-0.4c18.2-1.1,33.8-2,36.3-28.5c0.9-9.8,0.2-14.6-2.5-17.8c-4.6-5.5-17.5-8.6-41.7-10.2
	C239,114.7,232.7,114.5,227.4,114.4L227.4,114.4z"/>
<path class="st0" d="M281.8,436c-0.1-0.5-11.6-52.8-11.2-98.8c0.3-39.1,11.2-104.1,11.3-104.8c0.3-1.9-0.3-3.8-1.6-5.2
	s-3.2-2-5.1-1.7c-0.4,0.1-41.5,5.8-74.3-10c-1.5-0.7-3.2-0.8-4.8-0.2s-2.8,1.8-3.4,3.4c-0.2,0.6-22.1,56.3-43.8,89.8
	s-59.6,74-60,74.4c-1.8,1.9-2.1,4.8-0.8,7.1c0.9,1.5,22.5,38,84.7,54.7c19.5,5.3,37.1,7.1,52,7.1c32.4,0,52.4-8.5,53.6-9.1
	C280.9,441.6,282.4,438.8,281.8,436L281.8,436z M175.8,433.2c-46.1-12.4-68.1-36.5-75-45.6c9.9-10.8,39.3-43.6,58-72.5
	c2.3-3.5,4.6-7.2,6.8-11.1c6.4,4,20.8,12.1,40,17.2c21,5.6,44.6,6.7,53.2,6.9c-0.1,3.1-0.2,6.1-0.2,9c-0.3,39.3,7.5,81.8,10.4,96.3
	C257,437.2,222.1,445.7,175.8,433.2z"/>
<path d="M180.6,428.1c-1,0-2-0.2-2.9-0.8c-6.9-3.8-18.2-14.1-12.2-26.1c3.9-7.8,11.7-8.2,16.9-8.5c6.1-0.4,6.8-0.8,7.5-3.1
	c0.8-2.4-0.2-3.9-4.3-8.1c-4.2-4.4-10.6-11-6-20.9c4.5-9.6,13.9-9.7,20-9.7c5.9-0.1,7.4-0.4,8.1-2c2.4-5.4-8.9-10.9-9-11
	c-3-1.4-4.3-4.9-3-7.9c1.4-3,4.9-4.4,7.9-3c7.8,3.5,20.9,13.6,15,26.8c-4,9-13,9.1-18.9,9.2c-6.2,0.1-8.2,0.4-9.3,2.8
	c-0.9,2-0.7,2.9,3.8,7.5c4,4.2,10.1,10.5,7.1,20.1c-3.3,10.6-12.7,11.2-18.2,11.5c-4.9,0.3-6.2,0.6-6.8,2
	c-2.3,4.5,7.2,10.2,7.3,10.2c2.9,1.6,3.9,5.3,2.3,8.2C184.7,427,182.7,428.1,180.6,428.1L180.6,428.1z"/>
</svg>
