<?xml version="1.0" encoding="utf-8"?>
<!-- Generator: Adobe Illustrator 27.0.0, SVG Export Plug-In . SVG Version: 6.00 Build 0)  -->
<svg version="1.1" id="Livello_2_00000030446808796963627640000014628477120832427435_"
	 xmlns="http://www.w3.org/2000/svg" xmlns:xlink="http://www.w3.org/1999/xlink" x="0px" y="0px" viewBox="0 0 795.5 523.4"
	 style="enable-background:new 0 0 795.5 523.4;" xml:space="preserve">
<style type="text/css">
	.st0{fill:#D7242B;}
</style>
<path d="M305.1,224.6c-9.6,0-19.4-5.3-19.4-17.1c0-8.8,6-17.7,19.4-17.8c0.1,0,0.1,0,0.2,0c9.8,0,16.2,6.4,19.4,10.6
	c28.3-29.4,35.6-57.4,36.8-76.1c2.9-48.4-6.8-76.4-37.3-106.9c-2.3-2.3-2.3-6.1,0-8.5c2.3-2.3,6.1-2.3,8.5,0
	c32.9,32.9,43.9,64.3,40.8,116.1c-1.3,21.5-10,54.2-43.9,87.5c-0.4,0.3-0.6,0.6-0.9,0.9C321.3,220.7,313.1,224.6,305.1,224.6
	L305.1,224.6z M305.3,201.7C305.3,201.7,305.2,201.7,305.3,201.7c-5.1,0-7.6,1.9-7.6,5.8c0,1.3,0,5.1,7.4,5.1c4,0,7.7-1.8,10.7-4
	C314.5,206.5,310.8,201.7,305.3,201.7L305.3,201.7z"/>
<path d="M57.8,276c-29.8,0-46.9-10.4-47.9-11c-2.8-1.8-3.7-5.4-1.9-8.3c1.8-2.8,5.4-3.7,8.2-1.9c0.5,0.3,30.8,18.1,80.9,3.1
	c20.2-6.1,49.5-24.1,66-40.1c-7.1-2.9-12.9-8.1-15.3-14.2c-2.4-5.9-1.4-11.9,2.6-17c3.9-4.9,9.1-7.5,14.6-7.3
	c6.2,0.2,12.2,3.7,16.4,9.6c6.8,9.5,4.9,21.3-5.2,32.5c-16.8,18.7-51.4,40.7-75.7,47.9C84.4,274.2,70,276,57.8,276L57.8,276z
	 M164.6,191.3c-1.7,0-3.3,0.9-4.8,2.8c-1.3,1.7-1.6,3.2-0.9,5c1.6,3.9,6.9,7.5,12.5,8.7c2.1-3.8,2.9-8.1,0.2-11.9
	C169.6,193.1,167,191.4,164.6,191.3C164.7,191.3,164.6,191.3,164.6,191.3L164.6,191.3z"/>
<path d="M149.4,516.3c-2.2,0-4.3-1.2-5.4-3.3c-1.5-3-0.3-6.6,2.6-8.1c3.4-1.7,12.9-8,12.9-14.2c0-2.4-1.5-3.7-5.6-6.6
	c-4.5-3.3-10.6-7.7-10.6-16.6c0-7,4-13,11.3-16.9c4.8-2.5,9.4-3.4,9.9-3.5c3.3-0.6,6.4,1.6,6.9,4.9s-1.6,6.4-4.9,7
	c-0.1,0-11.2,2.2-11.2,8.5c0,2.5,1.6,3.9,5.7,6.9c4.4,3.2,10.5,7.6,10.5,16.3c0,14.6-17.5,23.9-19.5,24.9
	C151.3,516.1,150.3,516.3,149.4,516.3L149.4,516.3z"/>
<g>
	<path d="M403.5,269.9c0.3-3.3-2.1-6.2-5.5-6.5c-8.6-0.8-59.8-4.5-62-4.6c-3.3-0.2-6.2,2.2-6.4,5.5c-0.2,3.3,2.2,6.2,5.5,6.4
		c0.2,0,12,0.9,25.2,1.9c-1.1,23.4-6.5,52.2-6.6,52.5c-0.6,3.3,1.5,6.4,4.8,7c0.4,0.1,0.8,0.1,1.1,0.1c2.8,0,5.4-2,5.9-4.9
		c0.2-1.3,5.5-29.7,6.7-53.8c11.1,0.8,21.2,1.6,24.6,1.9c0.2,0,0.4,0,0.5,0C400.6,275.4,403.2,273,403.5,269.9L403.5,269.9z"/>
	<path d="M427.3,294.1c1.1-0.1,2.3-0.3,3.4-0.5c15-2.4,19.2-9.3,20.1-14.6c0.7-4.1-0.3-8-2.9-11.2c-7.2-9.1-25.1-10.8-28.6-11
		c-3-0.2-5.7,1.9-6.3,4.8L400.5,326c-0.6,3.2,1.5,6.4,4.7,7s6.4-1.5,7-4.7l5.3-27.1c7.2,10.5,18.7,26.7,23.8,32.3
		c1.2,1.3,2.8,1.9,4.4,1.9c1.5,0,2.9-0.5,4.1-1.6c2.4-2.2,2.6-6,0.4-8.5C445.5,320.2,434.3,304.4,427.3,294.1L427.3,294.1z
		 M423.7,269.4c5.9,1,12.6,3,14.8,5.9c0.5,0.6,0.6,1.1,0.5,1.8c-0.4,2.6-8,5.3-17.8,5.5L423.7,269.4L423.7,269.4z"/>
	<path d="M483.7,260.5c-1.3-1.9-3.6-3-5.9-2.6s-4.2,2-4.8,4.3c-0.5,1.6-11.1,39.6-13.7,66.5c-0.3,3.3,2.1,6.2,5.4,6.5
		s6.2-2.1,6.5-5.4c0.5-4.8,1.2-10,2.1-15.3c5.2-0.8,15.4-2,21.6-2c2.3,6.6,4.5,13.7,6.5,21.5c0.7,2.7,3.1,4.5,5.8,4.5
		c0.5,0,1-0.1,1.5-0.2c3.2-0.8,5.1-4.1,4.3-7.3C501.8,288,484.4,261.6,483.7,260.5L483.7,260.5z M475.7,302.1
		c1.7-8.2,3.5-16.1,5.1-22.5c2.8,5.4,6.2,12.5,9.6,21.1C485.3,300.9,479.7,301.6,475.7,302.1L475.7,302.1z"/>
	<path d="M577.5,255.1c3.3,0,6-2.8,5.9-6.1c0-3.3-2.7-5.9-6-5.9c0,0,0,0-0.1,0c-18,0.2-36.8,1.7-50.7,3.1c-0.1,0-0.2,0-0.2,0
		c-12.7,1.3-21.4,2.4-21.5,2.4c-3.3,0.4-5.6,3.5-5.1,6.8c0.4,3,3,5.2,5.9,5.2c0.3,0,0.5,0,0.8-0.1c0.1,0,5.6-0.8,14.2-1.7l-2.5,58.4
		c-0.1,3.3,2.4,6.1,5.7,6.2c0.1,0,0.2,0,0.3,0c3.2,0,5.8-2.5,6-5.7l2.6-60.1C545.7,256.4,561.9,255.3,577.5,255.1L577.5,255.1z"/>
	<path d="M601,272.4c3.3-0.4,5.6-3.4,5.2-6.7c-0.4-3.3-3.4-5.6-6.7-5.2c-23.2,2.8-44.7,1.9-44.9,1.9c-3.3-0.1-6.1,2.4-6.2,5.7
		s2.4,6.1,5.7,6.2c0.3,0,3.8,0.2,9.3,0.2c0.8,0,1.8,0,2.7,0l-11.3,44.3c-0.8,3.2,1.1,6.5,4.3,7.3c0.5,0.1,1,0.2,1.5,0.2
		c2.7,0,5.1-1.8,5.8-4.5l12.1-47.6C585.4,274,593.1,273.4,601,272.4L601,272.4z"/>
	<path d="M616.3,264.9c-3.3-0.3-6.2,2.1-6.5,5.4c-0.1,1,0.1,2,0.5,2.9c-1.2-0.2-2.6,0-3.8,0.6c-0.6,0.3-14.9,7.9-17,27
		c-1.1,10.1,2.3,16.3,5.4,19.8c4.3,4.8,11,7.7,17.8,7.7h0.1c7.4,0,15.1-3.1,21.1-8.5c6.7-6,10.8-14.3,11.5-23.5
		C647.2,272.7,630.6,266.2,616.3,264.9L616.3,264.9z M633.5,295.5c-1.1,14.2-12.9,20.9-20.6,20.9l0,0c-2.7,0-6.5-1-8.9-3.7
		c-2.1-2.4-3-5.9-2.5-10.5c1.4-12.5,10.1-17.4,10.6-17.7c2.8-1.5,3.9-4.8,2.7-7.7c0.2,0,0.3,0,0.5,0.1
		C627,277.9,634.6,281.5,633.5,295.5L633.5,295.5z"/>
	<path d="M674.7,289.5c6.6-1.2,14.2-3.7,18.7-8.5c2.7-2.9,4.1-6.5,3.9-10.3c-0.2-4-1.9-7.6-4.9-10.4c-8.9-8.1-27.6-7.6-29.7-7.5
		c-3,0.1-5.4,2.4-5.7,5.4c0,0.4-3.9,38-9.4,60.9c-0.8,3.2,1.2,6.5,4.4,7.2c3.2,0.8,6.5-1.2,7.2-4.4c1.9-7.8,3.6-17.2,5-26.2
		c8.5,9.6,23.3,26.3,28.7,31.1c1.1,1,2.6,1.5,4,1.5c1.7,0,3.3-0.7,4.5-2c2.2-2.5,2-6.3-0.5-8.5C696.5,314,683.8,299.9,674.7,289.5
		L674.7,289.5z M668.2,264.9c8.2,0.5,16.9,2.6,17,6.4c0,0.4,0,0.9-0.7,1.6c-2.9,3.1-11.2,5-18,5.7
		C667.3,273,667.8,268.3,668.2,264.9L668.2,264.9z"/>
	<path d="M719.9,245.3c-3.4-0.2-6.1,2.4-6.3,5.7c0,0.5-2.5,49.2-3.6,59c-0.4,3.3,2,6.3,5.3,6.6c0.2,0,0.4,0,0.7,0c3,0,5.6-2.3,6-5.4
		c1.1-10.2,3.5-57.7,3.7-59.7C725.8,248.3,723.2,245.5,719.9,245.3L719.9,245.3z"/>
	<path d="M788.4,317.9c-9.8-53-23.8-71.7-24.4-72.5c-1.3-1.8-3.6-2.6-5.7-2.3c-2.2,0.4-4,1.9-4.7,4c-0.2,0.5-15.5,45.8-25.6,69.5
		c-1.3,3,0.1,6.6,3.2,7.9c0.8,0.3,1.6,0.5,2.3,0.5c2.3,0,4.6-1.4,5.5-3.7c2.7-6.3,5.6-13.9,8.6-21.8c4.4,0.4,13.1,1.1,20.9,1.1
		c1.3,0,2.7,0,3.9-0.1c1.4,5.9,2.8,12.3,4.1,19.5c0.6,3.3,3.7,5.4,7,4.8S789,321.2,788.4,317.9L788.4,317.9z M751.9,287.9
		c3.2-8.8,6.2-17.3,8.5-23.9c2.6,5.7,5.7,13.8,8.8,24.8C763.3,288.7,756.6,288.3,751.9,287.9L751.9,287.9z"/>
</g>
<path d="M237.7,217.4c-2.9,0-5.5-2.1-5.9-5.1c-0.5-3.4-2.3-18.1,1.2-28.6c-14.2-1.7-26.2-6.7-34.1-14.8
	c-8.2-8.3-11.8-19.5-10.4-32.4c1.5-13.6,3.2-23.6,12.8-29.3c7.9-4.7,20-5.7,46.3-4c28.8,1.9,42.8,6,50,14.4
	c6.5,7.6,6.1,17.8,5.3,26.7c-3.4,36.7-30,38.3-47.5,39.4c-0.5,0-1.1,0.1-1.6,0.1c-1.7,0.2-3.3,0.3-4.9,0.4c-0.8,0.1-1.6,0.1-2.3,0.2
	c-0.2,0-0.4,0.1-0.9,0.6c-3.2,4.2-3,17.7-1.9,25.5c0.5,3.3-1.8,6.3-5.1,6.8C238.3,217.4,238,217.5,237.7,217.4L237.7,217.4z
	 M227.4,114.4c-10.3,0-16.5,1-20,3.1c-4.4,2.6-5.7,8.1-7,20.3c-1,9.3,1.4,16.9,7.1,22.7c8.2,8.3,23.1,12.5,40.6,11.7
	c2.1-0.2,4.3-0.3,6.6-0.4c18.2-1.1,33.8-2,36.3-28.5c0.9-9.8,0.2-14.6-2.5-17.8c-4.6-5.5-17.5-8.6-41.7-10.2
	C239,114.7,232.7,114.5,227.4,114.4L227.4,114.4z"/>
<g>
	<path class="st0" d="M387.2,357.8c-5.4-6.3-13.7-9.7-24.9-10.2c-18.5-0.8-32.3,5.4-32.9,5.6c-3,1.4-4.4,4.9-3,7.9
		c1.1,2.5,3.8,3.9,6.5,3.5c-0.1,9.1-1,32.9-6.1,70.6c-0.5,3.3,1.8,6.3,5.1,6.8c0.3,0,0.5,0.1,0.8,0.1c3,0,5.5-2.2,5.9-5.2
		c2-14.2,3.3-26.5,4.2-36.8c6.2,1,11.7,1.4,16.8,1.4c10.6,0,18.7-2.2,24.5-6.5c7.6-5.8,8.6-13.6,8.9-16.2
		C393.5,375,393.8,365.5,387.2,357.8L387.2,357.8z M381.1,377.3c-0.3,2.7-1.1,5.7-4.2,8.1c-3.9,3-12.7,5.8-32.3,2.8
		c-0.2,0-0.5,0-0.7-0.1c1.1-15.2,1.1-24.3,1.1-27.1c4.6-1,10.4-1.7,16.9-1.4c7.7,0.3,13.1,2.3,16.2,6
		C381.7,369.8,381.3,375.6,381.1,377.3L381.1,377.3z"/>
	<path class="st0" d="M425.2,374.9c-22.2-2.4-31.7,10.1-33.1,21.6c-0.8,6.6,0.8,12.5,4.5,17.2c4.7,5.8,12.5,9.3,23.2,10.4
		c1.7,0.2,3.4,0.3,5,0.3c7.8,0,14-2,18.5-6.1c4.8-4.3,7.5-10.7,7.5-18.5C450.9,385.1,442.3,376.8,425.2,374.9L425.2,374.9z
		 M438.8,399.6c0,3-0.7,7.1-3.5,9.6c-3.6,3.2-9.7,3.3-14.3,2.9c-7.3-0.7-12.5-2.8-15-6c-1.7-2.1-2.3-4.9-1.9-8.2
		c0.4-3.6,2.9-11.3,15.8-11.3c1.3,0,2.6,0.1,4.1,0.2C437.8,388.4,438.8,393.8,438.8,399.6L438.8,399.6z"/>
	<path class="st0" d="M532.2,358.2c-10.4-0.4-18.5,2.1-24.2,7.4c-2.6,2.5-4.6,5.5-5.9,9c0-0.2,0-0.4-0.1-0.5
		c-1.5-10.2-6.7-15.1-10.9-17.3c-12-6.6-28.1,0.3-29.9,1.1c-2.2,1-3.5,3.1-3.5,5.5c0,0.4,0,37.7-5,68.4c-0.5,3.3,1.7,6.4,5,6.9
		c0.3,0,0.7,0.1,1,0.1c2.9,0,5.4-2.1,5.9-5c1.7-10.1,2.8-20.7,3.5-30.6c0.7,0,1.5,0,2.3-0.1c8.1-0.2,20.2-0.5,27.2-8.7
		c1.1-1.3,2-2.7,2.7-4.2c1,5.1,4,10.6,8.3,15c3.9,3.9,10.5,8.7,20,8.7c0.2,0,0.3,0,0.4,0c22.8,0,31.6-13.1,33.2-21
		c1.3-6.4,0.6-16-5.3-23.6C553.1,364.5,545.8,358.8,532.2,358.2L532.2,358.2z M488.5,386.6c-3.5,4.1-12.1,4.3-18.3,4.5
		c-0.4,0-0.8,0-1.2,0c0.6-10.2,0.7-18.8,0.8-23.6c4.5-1.4,11.4-2.6,15.7-0.3c1,0.5,3.8,2.1,4.8,8.5
		C490.9,380.8,490.3,384.4,488.5,386.6L488.5,386.6z M550.4,390.5c-0.1,0.5-2.5,11.4-21.4,11.4c-0.1,0-0.2,0-0.4,0
		c-5.4,0-9.2-2.8-11.5-5.1c-3.6-3.6-5.2-8-5.2-10l0,0c0-5.5,1.5-9.7,4.3-12.4c2.9-2.8,7.5-4.2,13.7-4.2c0.6,0,1.2,0,1.8,0
		c7.3,0.3,12.6,2.5,15.7,6.5C551.1,381.3,551.1,387.6,550.4,390.5L550.4,390.5z"/>
	<path class="st0" d="M604.6,416.5c-7.2-1.3-17.4-2.1-24-2.5c1.2-9.6,3.3-29.2,5-55.9c0.2-3.3-2.3-6.2-5.6-6.4
		c-3.3-0.2-6.2,2.3-6.4,5.6c-2.4,37.6-5.7,61.2-5.7,61.4c-0.2,1.7,0.2,3.4,1.3,4.7c1.1,1.3,2.7,2.1,4.3,2.2c0.2,0,18.5,0.9,29,2.8
		c0.3,0.1,0.7,0.1,1,0.1c2.9,0,5.4-2,5.9-5C610.1,420.2,607.9,417.1,604.6,416.5L604.6,416.5z"/>
	<path class="st0" d="M641.2,353.4c-1-2.2-3.2-3.5-5.6-3.5c-2.4,0.1-4.5,1.6-5.4,3.8c-0.5,1.2-11.8,29.8-16.5,57
		c-0.6,3.3,1.6,6.4,4.9,6.9c3.3,0.6,6.4-1.6,6.9-4.9c0.5-3,1.1-6,1.8-9c6.2-1.6,16.1-3.7,21.4-4.7c3.2,7.3,5.9,13.8,7.2,17.4
		c0.9,2.5,3.2,4,5.7,4c0.7,0,1.3-0.1,2-0.4c3.1-1.1,4.8-4.5,3.6-7.7C662.6,399.4,642.1,355.2,641.2,353.4L641.2,353.4z M630.6,390.6
		c2-7,4-13.6,5.8-18.9c2.2,4.8,4.7,10.4,7.3,16.1C640,388.5,635.1,389.6,630.6,390.6z"/>
	<path class="st0" d="M694.7,388.4c7-2.5,14.6-6.5,18.4-13.1c2.1-3.7,3.9-9.8,0.4-17.7c-1.7-4-4.8-6.8-8.8-8.3
		c-11.2-4-27.5,4.1-29.3,5c-2,1-3.2,3-3.2,5.3l-0.5,59.7c0,3.3,2.6,6,6,6l0,0c3.3,0,6-2.6,6-6l0.2-24.1c9.8,6.6,23.3,18.5,28,27.9
		c1,2.1,3.2,3.3,5.4,3.3c0.9,0,1.8-0.2,2.7-0.6c3-1.5,4.2-5.1,2.7-8C717.3,407.5,705.1,396.1,694.7,388.4L694.7,388.4z M684.1,363.6
		c5-2.1,12.6-4.4,16.6-2.9c1,0.3,1.5,0.8,1.9,1.7c1.6,3.7,0.9,5.8,0.2,7c-2.7,4.8-11.5,8.1-18.8,9.7L684.1,363.6L684.1,363.6z"/>
	<path class="st0" d="M771.4,398.3c0,0-0.1,0-0.2,0c-18.2,0.5-29.7-1.1-35.4-2.3c0.3-2.3,0.7-5.1,1-8.3c2.8-0.4,11.5-1.6,18.1-1.7
		c3.3,0,6-2.7,6-6s-2.7-6-6-6l0,0c-5.7,0-12.4,0.8-16.7,1.4c0.7-6.1,1.2-12.1,1.5-16.7c6.5-1.6,18.2-3.8,30.4-2.4
		c3.3,0.4,6.3-2,6.7-5.2s-2-6.3-5.2-6.7c-21.1-2.5-40.3,4.2-41.2,4.5c-3.1,1.1-4.7,4.5-3.6,7.7c0.2,0.6,0.6,1.2,1,1.8
		c-0.8,13.4-4.5,41-4.5,41.4c-0.4,2.8,1.2,5.4,3.8,6.4c0.5,0.2,11.9,4.4,37.6,4.4c2.2,0,4.5,0,6.9-0.1c3.3-0.1,5.9-2.9,5.8-6.2
		C777.3,400.9,774.7,398.3,771.4,398.3L771.4,398.3z"/>
</g>
<path class="st0" d="M281.8,436c-0.1-0.5-11.6-52.8-11.2-98.8c0.3-39.1,11.2-104.1,11.3-104.8c0.3-1.9-0.3-3.8-1.6-5.2
	s-3.2-2-5.1-1.7c-0.4,0.1-41.5,5.8-74.3-10c-1.5-0.7-3.2-0.8-4.8-0.2s-2.8,1.8-3.4,3.4c-0.2,0.6-22.1,56.3-43.8,89.8
	s-59.6,74-60,74.4c-1.8,1.9-2.1,4.8-0.8,7.1c0.9,1.5,22.5,38,84.7,54.7c19.5,5.3,37.1,7.1,52,7.1c32.4,0,52.4-8.5,53.6-9.1
	C280.9,441.6,282.4,438.8,281.8,436L281.8,436z M175.8,433.2c-46.1-12.4-68.1-36.5-75-45.6c9.9-10.8,39.3-43.6,58-72.5
	c2.3-3.5,4.6-7.2,6.8-11.1c6.4,4,20.8,12.1,40,17.2c21,5.6,44.6,6.7,53.2,6.9c-0.1,3.1-0.2,6.1-0.2,9c-0.3,39.3,7.5,81.8,10.4,96.3
	C257,437.2,222.1,445.7,175.8,433.2z"/>
<path d="M180.6,428.1c-1,0-2-0.2-2.9-0.8c-6.9-3.8-18.2-14.1-12.2-26.1c3.9-7.8,11.7-8.2,16.9-8.5c6.1-0.4,6.8-0.8,7.5-3.1
	c0.8-2.4-0.2-3.9-4.3-8.1c-4.2-4.4-10.6-11-6-20.9c4.5-9.6,13.9-9.7,20-9.7c5.9-0.1,7.4-0.4,8.1-2c2.4-5.4-8.9-10.9-9-11
	c-3-1.4-4.3-4.9-3-7.9c1.4-3,4.9-4.4,7.9-3c7.8,3.5,20.9,13.6,15,26.8c-4,9-13,9.1-18.9,9.2c-6.2,0.1-8.2,0.4-9.3,2.8
	c-0.9,2-0.7,2.9,3.8,7.5c4,4.2,10.1,10.5,7.1,20.1c-3.3,10.6-12.7,11.2-18.2,11.5c-4.9,0.3-6.2,0.6-6.8,2
	c-2.3,4.5,7.2,10.2,7.3,10.2c2.9,1.6,3.9,5.3,2.3,8.2C184.7,427,182.7,428.1,180.6,428.1L180.6,428.1z"/>
</svg>
